<svg width="114" height="29" viewBox="0 0 114 29" fill="none" xmlns="http://www.w3.org/2000/svg">
<g clip-path="url(#clip0_4:40)">
<path d="M7 21.26C7 20.8333 7.02667 20.4367 7.08 20.07C7.12667 19.71 7.2 19.3167 7.3 18.89H9.66V19.87C9.66 20.41 9.69333 20.8867 9.76 21.3C9.82667 21.7133 9.93667 22.0633 10.09 22.35C10.2433 22.63 10.4467 22.8433 10.7 22.99C10.9533 23.1367 11.2633 23.21 11.63 23.21C12.21 23.21 12.65 23.05 12.95 22.73C13.2567 22.4167 13.41 21.9533 13.41 21.34C13.41 21.0333 13.39 20.7467 13.35 20.48C13.3033 20.22 13.2267 19.96 13.12 19.7C13.0133 19.4467 12.8733 19.1767 12.7 18.89C12.52 18.6033 12.2867 18.2833 12 17.93L8.84 14.17C8.28 13.45 7.84667 12.7267 7.54 12C7.23333 11.2667 7.08 10.4867 7.08 9.66C7.08 8.99333 7.18333 8.38333 7.39 7.83C7.59667 7.27667 7.89667 6.8 8.29 6.4C8.68333 5.99333 9.16667 5.68 9.74 5.46C10.3133 5.24 10.9633 5.13 11.69 5.13C12.57 5.13 13.3067 5.25333 13.9 5.5C14.4867 5.75333 14.9567 6.08 15.31 6.48C15.6633 6.88667 15.91 7.34333 16.05 7.85C16.1967 8.35667 16.27 8.86333 16.27 9.37C16.27 9.79667 16.2367 10.1933 16.17 10.56C16.1033 10.92 16.0267 11.32 15.94 11.76H13.6V10.81C13.6 9.74333 13.4467 8.93 13.14 8.37C12.8333 7.80333 12.3367 7.52 11.65 7.52C11.0833 7.52 10.66 7.67667 10.38 7.99C10.0933 8.30333 9.95 8.72667 9.95 9.26C9.95 9.54 9.97333 9.79333 10.02 10.02C10.06 10.2467 10.1233 10.4567 10.21 10.65C10.29 10.8433 10.3867 11.03 10.5 11.21C10.62 11.39 10.7533 11.5767 10.9 11.77L14.43 16.04C15.07 16.8733 15.5633 17.6733 15.91 18.44C16.25 19.2133 16.42 20.03 16.42 20.89C16.42 21.5967 16.31 22.2367 16.09 22.81C15.8633 23.3767 15.5433 23.86 15.13 24.26C14.7167 24.66 14.2167 24.9667 13.63 25.18C13.0433 25.3933 12.3833 25.5 11.65 25.5C10.7433 25.5 9.99333 25.38 9.4 25.14C8.8 24.9 8.32333 24.58 7.97 24.18C7.61 23.78 7.36 23.3267 7.22 22.82C7.07333 22.3133 7 21.7933 7 21.26ZM18.81 21.54V9.18H21.78V21.31C21.78 22.0233 21.89 22.5167 22.11 22.79C22.3233 23.07 22.6433 23.21 23.07 23.21C23.3633 23.21 23.65 23.1267 23.93 22.96C24.2167 22.7933 24.4733 22.56 24.7 22.26V9.18H27.66V25.32H25.4L25.11 23.59H25.09C24.8567 23.9567 24.61 24.2633 24.35 24.51C24.09 24.7567 23.8167 24.9533 23.53 25.1C23.2433 25.2467 22.9533 25.35 22.66 25.41C22.36 25.47 22.0633 25.5 21.77 25.5C20.8233 25.5 20.0933 25.1733 19.58 24.52C19.0667 23.8667 18.81 22.8733 18.81 21.54ZM33.85 25.5C33.67 25.5 33.4567 25.4833 33.21 25.45C32.97 25.4167 32.72 25.3367 32.46 25.21C32.2067 25.0833 31.9533 24.8967 31.7 24.65C31.4533 24.3967 31.2333 24.0533 31.04 23.62C30.84 23.1867 30.68 22.65 30.56 22.01C30.44 21.37 30.38 20.5933 30.38 19.68V14.56C30.38 13.6533 30.4433 12.8867 30.57 12.26C30.7033 11.6333 30.8733 11.1167 31.08 10.71C31.2933 10.2967 31.53 9.97667 31.79 9.75C32.05 9.51667 32.3133 9.34667 32.58 9.24C32.84 9.12667 33.09 9.06 33.33 9.04C33.5633 9.01333 33.76 9 33.92 9C34.2067 9 34.48 9.04 34.74 9.12C35 9.2 35.2333 9.30333 35.44 9.43C35.6533 9.56333 35.84 9.71 36 9.87C36.1667 10.03 36.3033 10.19 36.41 10.35L36.43 10.34L36.33 8.3V4H39.29V25.32H36.98L36.72 23.82C36.5867 24.0267 36.4333 24.2333 36.26 24.44C36.0867 24.64 35.8833 24.82 35.65 24.98C35.4167 25.14 35.1533 25.2667 34.86 25.36C34.56 25.4533 34.2233 25.5 33.85 25.5ZM34.86 23.21C35.0533 23.21 35.2267 23.1767 35.38 23.11C35.5333 23.0433 35.67 22.9567 35.79 22.85C35.91 22.7433 36.0133 22.62 36.1 22.48C36.1933 22.34 36.27 22.1967 36.33 22.05V12.34C36.1833 12.0133 35.9867 11.7367 35.74 11.51C35.4933 11.2767 35.1933 11.16 34.84 11.16C34.6267 11.16 34.43 11.2 34.25 11.28C34.07 11.3533 33.9133 11.5 33.78 11.72C33.6467 11.9333 33.5433 12.23 33.47 12.61C33.3967 12.99 33.36 13.48 33.36 14.08V20.27C33.36 20.87 33.3967 21.36 33.47 21.74C33.5433 22.1267 33.6467 22.4267 33.78 22.64C33.9133 22.8533 34.07 23 34.25 23.08C34.4367 23.1667 34.64 23.21 34.86 23.21ZM46.4 25.49C46.0533 25.49 45.7033 25.4633 45.35 25.41C44.9967 25.3567 44.6533 25.2433 44.32 25.07C43.9867 24.8967 43.6733 24.65 43.38 24.33C43.0867 24.01 42.83 23.59 42.61 23.07C42.3967 22.5433 42.2267 21.8967 42.1 21.13C41.9733 20.3633 41.91 19.45 41.91 18.39V15.86C41.91 14.8133 41.9733 13.9167 42.1 13.17C42.2333 12.4233 42.41 11.7967 42.63 11.29C42.85 10.7833 43.11 10.38 43.41 10.08C43.71 9.78 44.0233 9.54667 44.35 9.38C44.6833 9.22 45.0267 9.11667 45.38 9.07C45.7333 9.01667 46.0767 8.99 46.41 8.99C46.73 8.99 47.0633 9.01333 47.41 9.06C47.75 9.10667 48.0833 9.20667 48.41 9.36C48.7433 9.51333 49.0567 9.74 49.35 10.04C49.6433 10.34 49.9 10.7433 50.12 11.25C50.34 11.7633 50.5167 12.3967 50.65 13.15C50.7767 13.9033 50.84 14.8067 50.84 15.86V18.39C50.84 19.4367 50.7733 20.34 50.64 21.1C50.5067 21.8533 50.3267 22.4933 50.1 23.02C49.8733 23.54 49.6133 23.9633 49.32 24.29C49.02 24.6167 48.7067 24.87 48.38 25.05C48.0533 25.23 47.72 25.3467 47.38 25.4C47.04 25.46 46.7133 25.49 46.4 25.49ZM46.42 23.21C46.6867 23.21 46.9133 23.14 47.1 23C47.28 22.8667 47.4267 22.6433 47.54 22.33C47.6533 22.0167 47.7367 21.6033 47.79 21.09C47.8367 20.5767 47.86 19.9433 47.86 19.19V15.21C47.86 14.4567 47.8367 13.82 47.79 13.3C47.7367 12.7867 47.6533 12.3733 47.54 12.06C47.4267 11.74 47.28 11.51 47.1 11.37C46.9133 11.23 46.6867 11.16 46.42 11.16C46.14 11.16 45.9033 11.23 45.71 11.37C45.5233 11.51 45.3667 11.74 45.24 12.06C45.1133 12.3733 45.0233 12.7867 44.97 13.3C44.9167 13.82 44.89 14.4567 44.89 15.21V19.19C44.89 19.9433 44.9167 20.5767 44.97 21.09C45.0233 21.6033 45.1133 22.0167 45.24 22.33C45.3667 22.6433 45.5233 22.8667 45.71 23C45.9033 23.14 46.14 23.21 46.42 23.21ZM53.51 25.32V4H56.48V16.27H56.57L59.8 9.18H62.65L59.07 16.56L62.99 25.32H59.97L56.57 17.31H56.48V25.32H53.51ZM64.53 21.54V9.18H67.49V21.31C67.49 22.0233 67.6 22.5167 67.82 22.79C68.04 23.07 68.36 23.21 68.78 23.21C69.08 23.21 69.37 23.1267 69.65 22.96C69.93 22.7933 70.1833 22.56 70.41 22.26V9.18H73.38V25.32H71.11L70.82 23.59H70.81C70.5767 23.9567 70.3267 24.2633 70.06 24.51C69.8 24.7567 69.5267 24.9533 69.24 25.1C68.96 25.2467 68.67 25.35 68.37 25.41C68.0767 25.47 67.78 25.5 67.48 25.5C66.5333 25.5 65.8033 25.1733 65.29 24.52C64.7833 23.8667 64.53 22.8733 64.53 21.54Z" fill="#023047"/>
<path d="M103.805 1.45001H102.645H95.105H93.945H85.825V9.57001V10.73V18.27V19.43V27.55H93.945H95.105H102.645H103.805H111.925V19.43V18.27V10.73V9.57001V1.45001H103.805ZM102.645 2.61001V9.57001H95.105V2.61001H102.645ZM102.645 10.73V18.27H95.105V10.73H102.645ZM86.985 2.61001H93.945V9.57001H86.985V2.61001ZM86.985 10.73H93.945V18.27H86.985V10.73ZM86.985 26.39V19.43H93.945V26.39H86.985ZM95.105 26.39V19.43H102.645V26.39H95.105ZM110.765 26.39H103.805V19.43H110.765V26.39ZM110.765 18.27H103.805V10.73H110.765V18.27ZM103.805 9.57001V2.61001H110.765V9.57001H103.805Z" fill="#2A9D8F"/>
</g>
<defs>
<clipPath id="clip0_4:40">
<rect width="113.4" height="29" fill="white"/>
</clipPath>
</defs>
</svg>
